<svg xmlns="http://www.w3.org/2000/svg" width="220" height="65" fill="none" xmlns:v="https://vecta.io/nano"><path d="M211.25 0H8.125C3.638 0 0 3.638 0 8.125v48.75C0 61.362 3.638 65 8.125 65H211.25c4.487 0 8.125-3.638 8.125-8.125V8.125c0-4.487-3.638-8.125-8.125-8.125z" fill="#000"/><path d="M211.25 1.3c1.81 0 3.546.719 4.826 1.999s1.999 3.016 1.999 4.826v48.75c0 1.81-.719 3.546-1.999 4.826S213.06 63.7 211.25 63.7H8.125c-1.81 0-3.546-.719-4.826-1.999S1.3 58.685 1.3 56.875V8.125c0-1.81.719-3.546 1.999-4.826S6.315 1.3 8.125 1.3H211.25zm0-1.3H8.125C5.97 0 3.903.856 2.38 2.38S0 5.97 0 8.125v48.75c0 2.155.856 4.221 2.38 5.745S5.97 65 8.125 65H211.25c2.155 0 4.222-.856 5.745-2.38s2.38-3.59 2.38-5.745V8.125c0-2.155-.856-4.222-2.38-5.745S213.405 0 211.25 0h0z" fill="#a6a6a6"/><g fill="#fff"><path d="M77.058 16.64a4.42 4.42 0 0 1-1.219 3.25 4.71 4.71 0 0 1-1.635 1.097 4.7 4.7 0 0 1-1.94.333c-.667.015-1.329-.107-1.947-.359s-1.177-.627-1.644-1.104a4.89 4.89 0 0 1-1.116-1.65c-.255-.621-.378-1.287-.363-1.958a4.87 4.87 0 0 1 1.479-3.624 5.14 5.14 0 0 1 2.635-1.373c.994-.188 2.022-.078 2.955.317.586.241 1.109.613 1.528 1.089l-.861.861a3.25 3.25 0 0 0-2.665-1.17 3.77 3.77 0 0 0-3.786 3.9 3.83 3.83 0 0 0 .615 2.137 3.84 3.84 0 0 0 1.698 1.437 3.83 3.83 0 0 0 4.187-.763c.501-.543.795-1.245.829-1.982h-3.543v-1.17h4.729a6.11 6.11 0 0 1 .065.731zm7.442-4.062h-4.388v3.087h3.998v1.17h-3.998v3.087H84.5v1.203h-5.655v-9.75H84.5v1.203zm5.33 8.547h-1.251v-8.547h-2.73v-1.203h6.776v1.203H89.83v8.548zm7.572 0v-9.75h1.251v9.75h-1.251zm6.809 0h-1.251v-8.547h-2.73v-1.203h6.695v1.203h-2.714v8.548zm15.405-1.267a5.04 5.04 0 0 1-1.64 1.097c-.613.254-1.271.385-1.935.385a5.06 5.06 0 0 1-1.935-.385c-.614-.254-1.17-.627-1.64-1.097s-.843-1.035-1.089-1.655a4.88 4.88 0 0 1-.341-1.952 4.88 4.88 0 0 1 .341-1.952c.246-.621.617-1.184 1.089-1.655a4.77 4.77 0 0 1 1.631-1.119 4.76 4.76 0 0 1 1.944-.36c.666-.011 1.326.115 1.941.37a4.87 4.87 0 0 1 1.634 1.109 4.97 4.97 0 0 1 1.08 1.659c.246.62.365 1.282.35 1.948a4.86 4.86 0 0 1-.34 1.952 4.87 4.87 0 0 1-1.09 1.655zm-6.223-.812a3.71 3.71 0 0 0 1.213.819 3.72 3.72 0 0 0 1.435.288c.493 0 .981-.098 1.436-.288s.867-.469 1.213-.819a3.83 3.83 0 0 0 .829-1.287 3.85 3.85 0 0 0 .26-1.508 3.84 3.84 0 0 0-.29-1.516c-.198-.48-.492-.916-.864-1.279a3.72 3.72 0 0 0-1.213-.819c-.454-.19-.943-.288-1.436-.288a3.72 3.72 0 0 0-1.435.288c-.455.19-.867.469-1.213.819a3.83 3.83 0 0 0-.795 1.294c-.175.48-.253.99-.229 1.501a3.83 3.83 0 0 0 .26 1.508 3.84 3.84 0 0 0 .829 1.287zm9.424 2.079v-9.75h1.512l4.745 7.589v-1.885-5.704h1.251v9.75h-1.3l-4.956-7.946v1.869 6.078h-1.252z" stroke="#fff" stroke-width=".2" stroke-miterlimit="10"/><path d="M110.727 35.344c-1.369.003-2.706.412-3.843 1.176s-2.021 1.847-2.542 3.113-.655 2.658-.385 4.001a6.93 6.93 0 0 0 1.903 3.54c.971.966 2.206 1.622 3.549 1.886s2.735.124 3.999-.403a6.92 6.92 0 0 0 3.101-2.557c.758-1.14 1.16-2.48 1.157-3.849.013-.913-.157-1.82-.502-2.666s-.855-1.614-1.503-2.259a6.8 6.8 0 0 0-2.265-1.492 6.81 6.81 0 0 0-2.669-.489zm0 11.099a4.19 4.19 0 0 1-2.403-.56c-.727-.424-1.309-1.056-1.672-1.815s-.489-1.61-.361-2.441a4.19 4.19 0 0 1 3.212-3.454 4.19 4.19 0 0 1 4.392 1.721 4.19 4.19 0 0 1 .732 2.357c.027.533-.054 1.066-.237 1.567s-.465.961-.828 1.352-.802.705-1.289.923-1.012.338-1.546.35zM95.583 35.344a6.92 6.92 0 0 0-3.843 1.176c-1.137.763-2.021 1.847-2.542 3.113s-.655 2.658-.385 4.001a6.92 6.92 0 0 0 5.452 5.426 6.92 6.92 0 0 0 3.999-.403c1.264-.527 2.343-1.417 3.101-2.557s1.16-2.48 1.157-3.849c.013-.913-.157-1.82-.502-2.666s-.855-1.614-1.503-2.259-1.418-1.152-2.265-1.492a6.81 6.81 0 0 0-2.668-.489zm0 11.099c-.839.059-1.677-.136-2.403-.56s-1.309-1.056-1.672-1.815-.489-1.61-.361-2.441a4.19 4.19 0 0 1 3.213-3.454 4.19 4.19 0 0 1 4.392 1.721c.475.694.73 1.515.732 2.357a4 4 0 0 1-.238 1.567c-.183.501-.465.961-.828 1.352a4 4 0 0 1-2.834 1.274zm-18.005-8.97v2.925h7.02c-.11 1.378-.683 2.678-1.625 3.689-.704.718-1.551 1.279-2.486 1.649a7.18 7.18 0 0 1-2.941.496 7.8 7.8 0 0 1-7.8-7.8 7.8 7.8 0 0 1 7.8-7.8 7.54 7.54 0 0 1 5.33 2.096l2.064-2.064c-.968-.958-2.118-1.713-3.382-2.221s-2.617-.758-3.979-.737a10.74 10.74 0 0 0-7.864 2.992 10.74 10.74 0 0 0-3.295 7.741 10.74 10.74 0 0 0 3.295 7.742 10.74 10.74 0 0 0 7.864 2.992c1.39.055 2.776-.184 4.067-.702a9.86 9.86 0 0 0 3.424-2.304 9.75 9.75 0 0 0 2.535-6.874 10.19 10.19 0 0 0-.146-1.82h-9.88zm73.628 2.275a6.5 6.5 0 0 0-2.272-3.122c-1.057-.786-2.327-1.233-3.643-1.282-.889-.002-1.768.179-2.585.531s-1.552.867-2.161 1.514a6.51 6.51 0 0 0-1.381 2.249 6.52 6.52 0 0 0-.373 2.612c-.014 1.483.453 2.931 1.33 4.128a6.87 6.87 0 0 0 3.536 2.51c1.419.433 2.94.396 4.335-.106a6.87 6.87 0 0 0 3.409-2.681l-2.356-1.625a3.91 3.91 0 0 1-1.445 1.402 3.92 3.92 0 0 1-1.951.499c-.705.029-1.401-.156-1.999-.53a3.5 3.5 0 0 1-1.349-1.567l9.246-3.819-.341-.715zm-9.425 2.308a3.79 3.79 0 0 1 .201-1.487c.165-.477.424-.916.762-1.292a3.79 3.79 0 0 1 1.204-.895c.457-.215.952-.336 1.457-.357.522-.033 1.042.087 1.496.347a2.67 2.67 0 0 1 1.055 1.115l-6.175 2.568zm-7.507 6.695h3.038V28.438h-3.038V48.75zm-4.973-11.863h-.114a4.77 4.77 0 0 0-1.652-1.166 4.78 4.78 0 0 0-1.988-.378 6.92 6.92 0 0 0-6.587 6.914 6.92 6.92 0 0 0 6.587 6.914 4.68 4.68 0 0 0 2.002-.406c.629-.281 1.189-.697 1.638-1.219h.114v.991c0 2.649-1.414 4.063-3.689 4.063-.759-.017-1.497-.259-2.119-.696a3.83 3.83 0 0 1-1.374-1.758l-2.633 1.089a6.5 6.5 0 0 0 6.126 4.095c3.559 0 6.5-2.096 6.5-7.199V35.75h-2.811v1.137zm-3.494 9.555a4.19 4.19 0 0 1-2.794-1.314c-.73-.777-1.137-1.804-1.137-2.871s.407-2.093 1.137-2.871a4.19 4.19 0 0 1 2.794-1.314 3.89 3.89 0 0 1 1.502.373 3.88 3.88 0 0 1 2.012 2.268 3.88 3.88 0 0 1 .191 1.535 3.86 3.86 0 0 1-.181 1.542 3.87 3.87 0 0 1-2.015 2.28 3.87 3.87 0 0 1-1.509.37zm39.634-18.005h-7.28V48.75h3.039v-7.703h4.241c.866.062 1.736-.055 2.555-.343s1.569-.743 2.205-1.335 1.142-1.308 1.489-2.104.525-1.655.525-2.523-.178-1.727-.525-2.523-.854-1.512-1.489-2.104-1.386-1.046-2.205-1.335-1.689-.405-2.555-.343zm0 9.75H161.2v-6.923h4.306c.923 0 1.807.366 2.459 1.018a3.48 3.48 0 0 1 0 4.918c-.652.652-1.536 1.019-2.459 1.019l-.065-.032zm18.753-2.909a5.67 5.67 0 0 0-5.412 3.104l2.682 1.121a2.89 2.89 0 0 1 2.778-1.479c.386-.045.777-.013 1.15.095a2.93 2.93 0 0 1 1.024.532c.302.244.553.545.738.886s.3.717.338 1.103v.195a6.79 6.79 0 0 0-3.168-.78c-2.893 0-5.85 1.625-5.85 4.583.028.629.183 1.245.454 1.813a4.71 4.71 0 0 0 1.126 1.492 4.7 4.7 0 0 0 1.619.935 4.69 4.69 0 0 0 1.854.229 4.31 4.31 0 0 0 3.868-1.982h.097v1.625h2.925v-7.816c0-3.559-2.697-5.622-6.158-5.622l-.065-.033zm-.374 11.131c-.991 0-2.373-.504-2.373-1.722 0-1.625 1.723-2.178 3.25-2.178.966-.024 1.92.212 2.763.682a3.67 3.67 0 0 1-3.575 3.25l-.065-.032zm17.257-10.66l-3.477 8.807h-.098l-3.607-8.807h-3.25l5.411 12.317-3.087 6.841h3.25l8.238-19.159h-3.38zm-27.3 13h3.023V28.438h-3.023V48.75z"/></g><path d="M16.965 12.253a3.25 3.25 0 0 0-.715 2.275v35.945a3.15 3.15 0 0 0 .764 2.275l.114.13 20.085-20.134v-.487L17.079 12.139l-.114.114z" fill="url(#A)"/><path d="M43.875 39.455l-6.663-6.711v-.487l6.663-6.711.146.097L52 30.16c2.275 1.284 2.275 3.396 0 4.696l-7.946 4.517-.179.081z" fill="url(#B)"/><path d="M44.07 39.374L37.212 32.5 16.965 52.748a2.63 2.63 0 0 0 1.661.665c.614.021 1.217-.174 1.703-.551L44.07 39.374z" fill="url(#C)"/><path d="M44.07 25.643L20.329 12.155c-.483-.382-1.084-.582-1.7-.564s-1.204.252-1.664.661L37.212 32.5l6.857-6.858z" fill="url(#D)"/><g fill="#000"><path opacity=".2" d="M43.875 39.211L20.329 52.618c-.468.353-1.039.544-1.625.544s-1.157-.191-1.625-.544l-.114.114.114.13a2.7 2.7 0 0 0 3.25 0L44.07 39.374l-.195-.163z"/><path opacity=".12" d="M16.965 52.52a3.25 3.25 0 0 1-.715-2.291v.244c-.055.829.219 1.647.764 2.275l.114-.114-.163-.114zM52 34.613l-8.125 4.599.146.163L52 34.84a2.85 2.85 0 0 0 1.183-.933 2.84 2.84 0 0 0 .54-1.407A3.02 3.02 0 0 1 52 34.613z"/></g><path opacity=".25" d="M20.329 12.383L52 30.388c.432.193.814.484 1.113.851s.508.799.61 1.262c-.05-.509-.237-.995-.54-1.407s-.712-.734-1.183-.933L20.329 12.155c-2.259-1.3-4.079-.227-4.079 2.373v.244c0-2.6 1.82-3.673 4.079-2.389z" fill="#fff"/><defs><linearGradient id="A" x1="35.425" y1="14.154" x2="8.157" y2="41.421" gradientUnits="userSpaceOnUse"><stop stop-color="#00a0ff"/><stop offset=".01" stop-color="#00a1ff"/><stop offset=".26" stop-color="#00beff"/><stop offset=".51" stop-color="#00d2ff"/><stop offset=".76" stop-color="#00dfff"/><stop offset="1" stop-color="#00e3ff"/></linearGradient><linearGradient id="B" x1="54.974" y1="32.5" x2="15.665" y2="32.5" gradientUnits="userSpaceOnUse"><stop stop-color="#ffe000"/><stop offset=".41" stop-color="#ffbd00"/><stop offset=".78" stop-color="orange"/><stop offset="1" stop-color="#ff9c00"/></linearGradient><linearGradient id="C" x1="40.349" y1="36.238" x2="3.364" y2="73.206" gradientUnits="userSpaceOnUse"><stop stop-color="#ff3a44"/><stop offset="1" stop-color="#c31162"/></linearGradient><linearGradient id="D" x1="11.862" y1=".292" x2="28.372" y2="16.802" gradientUnits="userSpaceOnUse"><stop stop-color="#32a071"/><stop offset=".07" stop-color="#2da771"/><stop offset=".48" stop-color="#15cf74"/><stop offset=".8" stop-color="#06e775"/><stop offset="1" stop-color="#00f076"/></linearGradient></defs></svg>